<svg xmlns="http://www.w3.org/2000/svg" xmlns:xlink="http://www.w3.org/1999/xlink" viewBox="0 0 1370 413.47"><defs><style>.cls-1,.cls-41{fill:none;}.cls-2{fill:#f1f5f9;}.cls-3{fill:#fff;}.cls-4{font-size:21px;}.cls-17,.cls-18,.cls-19,.cls-4{fill:#59595b;}.cls-11,.cls-28,.cls-30,.cls-35,.cls-37,.cls-4{font-family:Interstate-Regular, Interstate;}.cls-5{letter-spacing:-0.09em;}.cls-6{letter-spacing:-0.03em;}.cls-7{letter-spacing:-0.02em;}.cls-8{letter-spacing:-0.01em;}.cls-9{letter-spacing:-0.01em;}.cls-10{letter-spacing:-0.03em;}.cls-11,.cls-28,.cls-30,.cls-35,.cls-37{font-size:15.4px;}.cls-11{fill:#666868;}.cls-12{letter-spacing:-0.05em;}.cls-13{letter-spacing:-0.02em;}.cls-14{letter-spacing:-0.02em;}.cls-15{letter-spacing:-0.03em;}.cls-16{letter-spacing:-0.01em;}.cls-17,.cls-39{stroke:#f1f5f9;stroke-miterlimit:10;}.cls-17{stroke-width:0.81px;}.cls-18{font-size:21.7px;font-family:Whitney-Semibold, Whitney;font-weight:700;}.cls-20{letter-spacing:-0.02em;}.cls-21{letter-spacing:-0.02em;}.cls-22{letter-spacing:-0.09em;}.cls-23{letter-spacing:-0.03em;}.cls-24{letter-spacing:-0.03em;}.cls-25{letter-spacing:-0.01em;}.cls-26,.cls-35{fill:#18ace4;}.cls-27{clip-path:url(#clip-path);}.cls-28{fill:#3ab776;}.cls-29{letter-spacing:-0.02em;}.cls-30,.cls-32{fill:#3eb549;}.cls-31{clip-path:url(#clip-path-2);}.cls-33{clip-path:url(#clip-path-3);}.cls-34{clip-path:url(#clip-path-4);}.cls-36{letter-spacing:-0.09em;}.cls-37,.cls-39{fill:#f15f24;}.cls-38{letter-spacing:-0.03em;}.cls-39{stroke-width:0.32px;}.cls-40{letter-spacing:-0.03em;}.cls-41{stroke:#bcbec0;stroke-linecap:round;stroke-linejoin:round;stroke-width:1.39px;}</style><clipPath id="clip-path"><rect class="cls-1" x="447.68" y="250.96" width="53.39" height="60.83"/></clipPath><clipPath id="clip-path-2"><rect class="cls-1" x="758.37" y="118.58" width="53.39" height="60.83"/></clipPath><clipPath id="clip-path-3"><rect class="cls-1" x="922.64" y="119.27" width="53.39" height="60.83"/></clipPath><clipPath id="clip-path-4"><rect class="cls-1" x="840.96" y="118.31" width="53.39" height="60.83"/></clipPath></defs><title>Artboard 87 copy 4</title><g id="Layer_2" data-name="Layer 2"><rect class="cls-2" x="-0.06" width="1370.11" height="413.47"/><rect class="cls-3" x="680.52" y="0.98" width="11.98" height="413.47"/></g><g id="Layer_1" data-name="Layer 1"><text class="cls-4" transform="translate(714.8 45.38)">ME<tspan class="cls-5" x="29.88" y="0">T</tspan><tspan x="40.74" y="0">AL </tspan><tspan class="cls-6" x="73.86" y="0">T</tspan><tspan class="cls-7" x="85.91" y="0">O</tspan><tspan x="100.38" y="0">AD:</tspan><tspan x="0" y="25.2">L</tspan><tspan class="cls-8" x="12.5" y="25.2">E</tspan><tspan x="25.2" y="25.2">VE</tspan><tspan class="cls-9" x="52.56" y="25.2">R</tspan><tspan class="cls-7" x="66.82" y="25.2">A</tspan><tspan x="81.31" y="25.2">GE THE ENTIRETY OF THE C</tspan><tspan class="cls-10" x="360.63" y="25.2">L</tspan><tspan x="372.5" y="25.2">OUD</tspan></text><text class="cls-11" transform="translate(164.86 284.55)"><tspan class="cls-12">Y</tspan><tspan x="9.76" y="0">OU</tspan></text><text class="cls-11" transform="translate(276.67 284.55)"><tspan class="cls-13">S</tspan><tspan x="9.25" y="0">AL</tspan><tspan class="cls-14" x="29.38" y="0">E</tspan><tspan x="38.62" y="0">S P</tspan><tspan class="cls-15" x="62.47" y="0">E</tspan><tspan x="71.44" y="0">OPLE</tspan></text><text class="cls-11" transform="translate(459.98 221.88)"><tspan class="cls-15">E</tspan><tspan x="8.96" y="0">C2</tspan></text><text class="cls-11" transform="translate(459.06 334.98)">R<tspan class="cls-16" x="10.69" y="0">D</tspan><tspan x="20.99" y="0">S</tspan></text><path class="cls-17" d="M180.64,187.45A39.55,39.55,0,1,0,220.19,227,39.55,39.55,0,0,0,180.64,187.45Zm0,3.3a36.23,36.23,0,0,1,27.87,59.41c-3.58-1.5-12.11-4.47-17.42-6-.45-.14-.52-.16-.52-2a10.81,10.81,0,0,1,1.26-4.43,22.72,22.72,0,0,0,1.76-6c.8-.93,1.9-2.76,2.59-6.26.61-3.08.33-4.2-.08-5.26l-.12-.33a34.3,34.3,0,0,1,.58-7.39,13.56,13.56,0,0,0-2.84-9.76c-1.74-2.22-5.07-5-11.14-5.33h-3.33c-6,.38-9.29,3.11-11,5.33a13.52,13.52,0,0,0-2.85,9.76,34.31,34.31,0,0,1,.59,7.38l-.12.34c-.41,1.06-.7,2.18-.08,5.26.7,3.5,1.79,5.33,2.59,6.26a22.48,22.48,0,0,0,1.76,6,10.63,10.63,0,0,1,.72,4.49c0,1.87-.07,1.9-.49,2-5.46,1.61-14.15,4.75-17.39,6.17a36.21,36.21,0,0,1,27.69-59.6Zm-25.3,62.17c3.71-1.51,11.1-4.15,16-5.59,2.83-.89,2.83-3.27,2.83-5.18a14.18,14.18,0,0,0-1-5.9,18.56,18.56,0,0,1-1.52-5.49,1.66,1.66,0,0,0-.56-1.1c-.46-.41-1.42-1.91-2-4.92-.48-2.39-.28-2.91-.08-3.42l.23-.67c.4-1.45,0-6.2-.52-8.83a10.32,10.32,0,0,1,2.2-7.14c1.92-2.46,4.83-3.82,8.54-4.06h3.12c3.81.24,6.72,1.61,8.64,4.06a10.33,10.33,0,0,1,2.2,7.14c-.48,2.64-.92,7.39-.53,8.83l.23.67c.19.51.4,1-.08,3.42-.61,3-1.55,4.52-2,4.92a1.66,1.66,0,0,0-.55,1.1,18.66,18.66,0,0,1-1.53,5.49,14,14,0,0,0-1.57,5.83c0,1.91,0,4.29,2.86,5.19,4.65,1.37,12.08,3.93,16,5.47a36.15,36.15,0,0,1-50.79.17Z"/><text class="cls-18" transform="translate(250.29 241.5)">+</text><text class="cls-18" transform="translate(1025.28 306.36)">+</text><text class="cls-18" transform="translate(407.79 241.5)">=</text><path class="cls-19" d="M372.52,231.66,368.81,228a3.91,3.91,0,0,0-5.51,0L343.24,248l-2.76,10.14-.67.67a1.3,1.3,0,0,0,0,1.83v0h0a1.3,1.3,0,0,0,1.83,0l.68-.67,10.14-2.77,20.05-20.06a3.89,3.89,0,0,0,0-5.5Zm-26.27,17,13.35-13.35,5.53,5.53-13.35,13.35Zm-1.18,2.51,4.2,4.19L343.5,257Zm25.61-15.87L367,239l-5.53-5.53,3.71-3.7a1.28,1.28,0,0,1,1.81,0l3.72,3.71a1.3,1.3,0,0,1,0,1.82Zm0,0"/><path class="cls-19" d="M338.16,228.58l-.22-.27,0,0-.24-.32h0c-.2-.27-.44-.62-.71-1v0c-.13-.2-.27-.42-.4-.65l0-.05c-.3-.5-.61-1.06-.92-1.67h0c-.16-.33-.33-.68-.49-1l-.07-.15c-.07-.16-.15-.33-.22-.51l-.07-.19c-.07-.17-.14-.34-.21-.54-.13-.36-.26-.73-.38-1.11l-.07-.23s0-.06,0-.08c-.12-.41-.24-.83-.34-1.27l-.12-.52-.44-.29a2.6,2.6,0,0,1-1.2-2.18v-5.22a2.58,2.58,0,0,1,.87-1.92l.43-.39v-8.58l0,0a9,9,0,0,1,2.11-6.22c2.16-2.46,5.85-3.71,11-3.71s8.76,1.23,10.93,3.68a9.13,9.13,0,0,1,2.11,6.57v8.29l.43.39a2.56,2.56,0,0,1,.87,1.92v5.22a2.6,2.6,0,0,1-1.85,2.47,1.3,1.3,0,1,0,.77,2.49,5.18,5.18,0,0,0,3.69-5v-5.22a5.19,5.19,0,0,0-1.31-3.42v-6.94a11.65,11.65,0,0,0-2.72-8.5c-2.68-3.06-7-4.6-12.91-4.6s-10.24,1.55-12.92,4.6a11.36,11.36,0,0,0-2.69,6.26,16.89,16.89,0,0,0-7.86-1.74c-13.54,0-14.33,11.54-14.34,11.73v6a4.54,4.54,0,0,0-1.3,3v4.5a4.65,4.65,0,0,0,1.7,3.6,20.1,20.1,0,0,0,4.75,8.2v3.57a2.84,2.84,0,0,1-1.52,2.5l-8.67,5.44a10.33,10.33,0,0,0-5.38,9.07v5h35.2a1.31,1.31,0,0,0,0-2.61H318.92v-2.91a9.15,9.15,0,0,1,4.77-8l11.63-6.35a6.05,6.05,0,0,0,3.16-5.31v-5.24l-.25-.3Zm-2.3,5.6a3.44,3.44,0,0,1-1.79,3l-3.45,1.88-.85.46-7.33,4a11.75,11.75,0,0,0-6.13,10.32v2.91H300.67v-2.34a7.76,7.76,0,0,1,4.09-6.82l8.67-5.43a5.41,5.41,0,0,0,2.82-4.75v-4.68l-.41-.39a17.33,17.33,0,0,1-4.52-7.76l-.12-.52-.44-.29a2.07,2.07,0,0,1-1-1.74v-4.5a2.27,2.27,0,0,1,.88-1.53l.43-.38v-7c0-.38.7-9.2,11.73-9.2a13.55,13.55,0,0,1,7.82,2.15v6.17a5.19,5.19,0,0,0-1.31,3.42v5.21a5.1,5.1,0,0,0,.13,1.17,3.88,3.88,0,0,0,.15.44,4.52,4.52,0,0,0,.23.65h0a5.2,5.2,0,0,0,1.43,1.8l0,.07c.08.3.16.6.25.88l.11.34.06.18c0,.14.09.29.14.42s.16.46.25.73c0,.11.08.2.13.31.1.27.21.53.33.8l.08.19.08.17.1.22c.13.28.25.55.38.81l.06.13.24.47c.14.27.28.52.42.77l.2.35c.19.32.37.62.54.89l.11.17c.31.49.58.88.81,1.2l.16.22.09.12Zm0,0"/><text class="cls-4" transform="translate(21.78 45.38)">T<tspan class="cls-20" x="12.75" y="0">R</tspan><tspan x="27" y="0">ADITIONAL MODEL:</tspan><tspan class="cls-21" x="0" y="25.2">S</tspan><tspan class="cls-22" x="12.62" y="25.2">T</tspan><tspan x="23.48" y="25.2">AN</tspan><tspan class="cls-23" x="53.42" y="25.2">D</tspan><tspan x="67.01" y="25.2">AR</tspan><tspan class="cls-24" x="96.54" y="25.2">D</tspan><tspan x="110.06" y="25.2">, OFF THE SHELF </tspan><tspan class="cls-25" x="283.88" y="25.2">S</tspan><tspan x="296.92" y="25.2">O</tspan><tspan class="cls-24" x="311.85" y="25.2">L</tspan><tspan x="323.61" y="25.2">UTIONS</tspan></text><path class="cls-19" d="M478.47,131.88v6.66l2,.53a24.29,24.29,0,0,1,6.57,2.77l1.83,1.11,1.51-1.51,3.25-3.25,5.79,5.79-3.36,3.36-1.48,1.48,1,1.81a24.37,24.37,0,0,1,2.56,6.47l.5,2.09h7v8.19h-7.18l-.55,2a24.42,24.42,0,0,1-2.66,6.16l-1.11,1.83,1.52,1.52,3.7,3.7-5.79,5.79-3.81-3.81-1.48-1.48-1.81,1a24.39,24.39,0,0,1-6.06,2.46l-2,.53v7.56h-8.19V187.1l-2-.53a24.39,24.39,0,0,1-6.06-2.46l-1.81-1-1.48,1.48-3.81,3.81-5.79-5.79,3.7-3.7,1.52-1.52-1.11-1.83a24.42,24.42,0,0,1-2.66-6.16l-.55-2H443v-8.19h7l.5-2.09a24.37,24.37,0,0,1,2.56-6.47l1-1.81-1.48-1.48L449.29,144l5.79-5.79,3.25,3.25,1.51,1.51,1.83-1.11a24.28,24.28,0,0,1,6.57-2.77l2-.53v-6.66h8.19m-4.09,43.67a12.28,12.28,0,1,0-12.28-12.28,12.3,12.3,0,0,0,12.28,12.28m6.82-46.4H467.55v7.27a27.07,27.07,0,0,0-7.3,3.08l-5.18-5.18L445.43,144l5.29,5.29a27.1,27.1,0,0,0-2.85,7.19h-7.6v13.65h7.83a27.06,27.06,0,0,0,3,6.85l-5.63,5.63,9.65,9.65,5.74-5.74a27,27,0,0,0,6.74,2.73v8.17H481.2v-8.17a27,27,0,0,0,6.74-2.73l5.74,5.74,9.65-9.65-5.63-5.63a27.06,27.06,0,0,0,3-6.85h7.83V156.45h-7.6a27.1,27.1,0,0,0-2.85-7.19l5.29-5.29-9.65-9.65-5.18,5.18a27.07,27.07,0,0,0-7.3-3.08Zm-6.82,43.67a9.55,9.55,0,1,1,9.55-9.55A9.55,9.55,0,0,1,474.38,172.82Z"/><path class="cls-26" d="M1188.28,120.56V126l1.69.43a20,20,0,0,1,5.41,2.28l1.51.91,1.25-1.25,2.67-2.67,4.77,4.77-2.76,2.77-1.22,1.22.86,1.49a20.07,20.07,0,0,1,2.11,5.32L1205,143h5.79v6.74h-5.91l-.46,1.65a20.11,20.11,0,0,1-2.19,5.07l-.92,1.51,1.25,1.25,3,3-4.77,4.77-3.13-3.13-1.22-1.22-1.49.86a20.09,20.09,0,0,1-5,2l-1.69.43v6.22h-6.74V166l-1.69-.43a20.09,20.09,0,0,1-5-2l-1.49-.86-1.22,1.22-3.13,3.13-4.77-4.77,3-3,1.25-1.25-.92-1.51a20.11,20.11,0,0,1-2.19-5.07l-.46-1.65h-5.91V143h5.78l.41-1.72a20.07,20.07,0,0,1,2.11-5.32l.86-1.49-1.22-1.22-2.76-2.77,4.77-4.77,2.67,2.67,1.25,1.25,1.51-.91a20,20,0,0,1,5.41-2.28l1.69-.43v-5.48h6.74m-3.37,36a10.12,10.12,0,1,0-10.11-10.12,10.13,10.13,0,0,0,10.11,10.12m5.62-38.21h-11.24v6a22.29,22.29,0,0,0-6,2.53l-4.26-4.26-7.95,7.95,4.35,4.35a22.32,22.32,0,0,0-2.35,5.92h-6.26V152h6.45a22.28,22.28,0,0,0,2.44,5.64l-4.63,4.63,7.95,7.95,4.72-4.72a22.26,22.26,0,0,0,5.55,2.25v6.73h11.24v-6.73a22.26,22.26,0,0,0,5.55-2.25l4.72,4.72,7.95-7.95-4.63-4.63a22.28,22.28,0,0,0,2.44-5.64H1213V140.79h-6.26a22.32,22.32,0,0,0-2.35-5.92l4.35-4.35-7.95-7.95-4.26,4.26a22.29,22.29,0,0,0-6-2.53Zm-5.62,36a7.87,7.87,0,1,1,7.87-7.87A7.87,7.87,0,0,1,1184.91,154.27Z"/><path class="cls-26" d="M1105.22,120.83v5.48l1.69.43a20,20,0,0,1,5.41,2.28l1.51.91,1.25-1.25,2.67-2.67,4.77,4.77-2.76,2.77-1.22,1.22.86,1.49a20.07,20.07,0,0,1,2.11,5.32l.41,1.72h5.79V150h-5.91l-.46,1.65a20.11,20.11,0,0,1-2.19,5.07l-.92,1.51,1.25,1.25,3,3-4.77,4.77-3.13-3.13L1113.4,163l-1.49.86a20.09,20.09,0,0,1-5,2l-1.69.43v6.22h-6.74V166.3l-1.69-.43a20.09,20.09,0,0,1-5-2l-1.49-.86-1.22,1.22-3.13,3.13-4.77-4.77,3-3,1.25-1.25-.92-1.51a20.11,20.11,0,0,1-2.19-5.07l-.46-1.65H1076V143.3h5.78l.41-1.72a20.07,20.07,0,0,1,2.11-5.32l.86-1.49-1.22-1.22-2.76-2.77L1086,126l2.67,2.67,1.25,1.25,1.51-.91a20,20,0,0,1,5.41-2.28l1.69-.43v-5.48h6.74m-3.37,36a10.12,10.12,0,1,0-10.11-10.12,10.13,10.13,0,0,0,10.11,10.12m5.62-38.21h-11.24v6a22.29,22.29,0,0,0-6,2.53l-4.26-4.26-7.95,7.95,4.35,4.35a22.32,22.32,0,0,0-2.35,5.92h-6.26v11.24h6.45a22.28,22.28,0,0,0,2.44,5.64l-4.63,4.63,7.95,7.95,4.72-4.72a22.26,22.26,0,0,0,5.55,2.25v6.73h11.24V168a22.26,22.26,0,0,0,5.55-2.25l4.72,4.72,7.95-7.95-4.63-4.63a22.28,22.28,0,0,0,2.44-5.64h6.45V141.06h-6.26a22.32,22.32,0,0,0-2.35-5.92l4.35-4.35-7.95-7.95-4.26,4.26a22.29,22.29,0,0,0-6-2.53Zm-5.62,36a7.87,7.87,0,1,1,7.87-7.87A7.87,7.87,0,0,1,1101.85,154.54Z"/><path class="cls-26" d="M1269.71,120.83v5.48l1.69.43a20,20,0,0,1,5.41,2.28l1.51.91,1.25-1.25,2.67-2.67,4.77,4.77-2.76,2.77-1.22,1.22.86,1.49a20.07,20.07,0,0,1,2.11,5.32l.41,1.72h5.79V150h-5.91l-.46,1.65a20.11,20.11,0,0,1-2.19,5.07l-.92,1.51,1.25,1.25,3,3-4.77,4.77-3.13-3.13-1.22-1.22-1.49.86a20.09,20.09,0,0,1-5,2l-1.69.43v6.22H1263V166.3l-1.69-.43a20.09,20.09,0,0,1-5-2l-1.49-.86-1.22,1.22-3.13,3.13-4.77-4.77,3-3,1.25-1.25-.92-1.51a20.11,20.11,0,0,1-2.19-5.07l-.46-1.65h-5.91V143.3h5.78l.41-1.72a20.07,20.07,0,0,1,2.11-5.32l.86-1.49-1.22-1.22-2.76-2.77,4.77-4.77,2.67,2.67,1.25,1.25,1.51-.91a20,20,0,0,1,5.41-2.28l1.69-.43v-5.48h6.74m-3.37,36a10.12,10.12,0,1,0-10.11-10.12,10.13,10.13,0,0,0,10.11,10.12m5.62-38.21h-11.24v6a22.29,22.29,0,0,0-6,2.53l-4.26-4.26-7.95,7.95,4.35,4.35a22.32,22.32,0,0,0-2.35,5.92h-6.26v11.24h6.45a22.28,22.28,0,0,0,2.44,5.64l-4.63,4.63,7.95,7.95,4.72-4.72a22.26,22.26,0,0,0,5.55,2.25v6.73H1272V168a22.26,22.26,0,0,0,5.55-2.25l4.72,4.72,7.95-7.95-4.63-4.63a22.28,22.28,0,0,0,2.44-5.64h6.45V141.06h-6.26a22.32,22.32,0,0,0-2.35-5.92l4.35-4.35-7.95-7.95L1278,127.1a22.29,22.29,0,0,0-6-2.53Zm-5.62,36a7.87,7.87,0,1,1,7.87-7.87A7.87,7.87,0,0,1,1266.34,154.54Z"/><g class="cls-27"><path class="cls-19" d="M475,251a45.21,45.21,0,0,0-18.08,3.38,17.7,17.7,0,0,0-5.7,3.84,7.65,7.65,0,0,0-2.29,5.2v12.18a.92.92,0,0,0,0,.23V288a.92.92,0,0,0,0,.23v11.17a7.65,7.65,0,0,0,2.29,5.2,17.7,17.7,0,0,0,5.7,3.84,50.1,50.1,0,0,0,36.16,0,17.7,17.7,0,0,0,5.7-3.84,7.65,7.65,0,0,0,2.29-5.2v-36a7.65,7.65,0,0,0-2.29-5.2,17.7,17.7,0,0,0-5.7-3.84A45.21,45.21,0,0,0,475,251Zm0,2.48a42.93,42.93,0,0,1,17,3.18,15.52,15.52,0,0,1,4.93,3.26,4.56,4.56,0,0,1,0,7,15.52,15.52,0,0,1-4.93,3.26,47.19,47.19,0,0,1-34.06,0,15.52,15.52,0,0,1-4.93-3.26,4.56,4.56,0,0,1,0-7,15.52,15.52,0,0,1,4.93-3.26,42.93,42.93,0,0,1,17-3.18Zm-23.59,15.33a17.92,17.92,0,0,0,5.51,3.65,50.1,50.1,0,0,0,36.16,0,17.92,17.92,0,0,0,5.51-3.65v7a5.12,5.12,0,0,1-1.63,3.49,15.52,15.52,0,0,1-4.93,3.26,47.19,47.19,0,0,1-34.06,0,15.52,15.52,0,0,1-4.93-3.26,5.12,5.12,0,0,1-1.63-3.49.92.92,0,0,0,0-.23Zm0,12.42a17.92,17.92,0,0,0,5.51,3.65,50.1,50.1,0,0,0,36.16,0,17.92,17.92,0,0,0,5.51-3.65v7A5.12,5.12,0,0,1,497,291.7,15.52,15.52,0,0,1,492,295,47.19,47.19,0,0,1,458,295,15.52,15.52,0,0,1,453,291.7a5.12,5.12,0,0,1-1.63-3.49.92.92,0,0,0,0-.23Zm0,12.42a17.92,17.92,0,0,0,5.51,3.65,50.1,50.1,0,0,0,36.16,0,17.92,17.92,0,0,0,5.51-3.65v5.78a5.12,5.12,0,0,1-1.63,3.49,15.52,15.52,0,0,1-4.93,3.26,47.19,47.19,0,0,1-34.06,0,15.52,15.52,0,0,1-4.93-3.26,5.12,5.12,0,0,1-1.63-3.49Zm0,0"/></g><text class="cls-28" transform="translate(752.95 205.63)"><tspan class="cls-13">A</tspan><tspan x="10.58" y="0">U</tspan><tspan class="cls-29" x="21.42" y="0">R</tspan><tspan x="31.85" y="0">O</tspan><tspan class="cls-14" x="42.79" y="0">R</tspan><tspan x="53.25" y="0">A</tspan></text><text class="cls-30" transform="translate(912.35 206.33)">RE<tspan class="cls-16" x="20.16" y="0">D</tspan><tspan x="30.46" y="0">SHIFT</tspan></text><text class="cls-30" transform="translate(852.34 205.36)">R<tspan class="cls-16" x="10.69" y="0">D</tspan><tspan x="20.99" y="0">S</tspan></text><g class="cls-31"><path class="cls-32" d="M785.68,118.58A45.21,45.21,0,0,0,767.6,122a17.7,17.7,0,0,0-5.7,3.84,7.65,7.65,0,0,0-2.29,5.2v12.18a.92.92,0,0,0,0,.23v12.18a.92.92,0,0,0,0,.23V167a7.65,7.65,0,0,0,2.29,5.2,17.7,17.7,0,0,0,5.7,3.84,50.1,50.1,0,0,0,36.16,0,17.7,17.7,0,0,0,5.7-3.84,7.65,7.65,0,0,0,2.29-5.2V131a7.65,7.65,0,0,0-2.29-5.2,17.7,17.7,0,0,0-5.7-3.84,45.21,45.21,0,0,0-18.08-3.38Zm0,2.48a42.93,42.93,0,0,1,17,3.18,15.52,15.52,0,0,1,4.93,3.26,4.56,4.56,0,0,1,0,7,15.52,15.52,0,0,1-4.93,3.26,47.19,47.19,0,0,1-34.06,0,15.52,15.52,0,0,1-4.93-3.26,4.56,4.56,0,0,1,0-7,15.52,15.52,0,0,1,4.93-3.26,42.93,42.93,0,0,1,17-3.18Zm-23.59,15.33A17.92,17.92,0,0,0,767.6,140a50.1,50.1,0,0,0,36.16,0,17.92,17.92,0,0,0,5.51-3.65v7a5.12,5.12,0,0,1-1.63,3.49,15.52,15.52,0,0,1-4.93,3.26,47.19,47.19,0,0,1-34.06,0,15.52,15.52,0,0,1-4.93-3.26,5.12,5.12,0,0,1-1.63-3.49.92.92,0,0,0,0-.23Zm0,12.42a17.92,17.92,0,0,0,5.51,3.65,50.1,50.1,0,0,0,36.16,0,17.92,17.92,0,0,0,5.51-3.65v7a5.12,5.12,0,0,1-1.63,3.49,15.52,15.52,0,0,1-4.93,3.26,47.19,47.19,0,0,1-34.06,0,15.52,15.52,0,0,1-4.93-3.26,5.12,5.12,0,0,1-1.63-3.49.92.92,0,0,0,0-.23Zm0,12.42a17.92,17.92,0,0,0,5.51,3.65,50.1,50.1,0,0,0,36.16,0,17.92,17.92,0,0,0,5.51-3.65V167a5.12,5.12,0,0,1-1.63,3.49,15.52,15.52,0,0,1-4.93,3.26,47.19,47.19,0,0,1-34.06,0,15.52,15.52,0,0,1-4.93-3.26,5.12,5.12,0,0,1-1.63-3.49Zm0,0"/></g><g class="cls-33"><path class="cls-32" d="M950,119.27a45.21,45.21,0,0,0-18.08,3.38,17.7,17.7,0,0,0-5.7,3.84,7.65,7.65,0,0,0-2.29,5.2v12.18a.92.92,0,0,0,0,.23v12.18a.92.92,0,0,0,0,.23v11.17a7.65,7.65,0,0,0,2.29,5.2,17.7,17.7,0,0,0,5.7,3.84,50.1,50.1,0,0,0,36.16,0,17.7,17.7,0,0,0,5.7-3.84,7.65,7.65,0,0,0,2.29-5.2v-36a7.65,7.65,0,0,0-2.29-5.2,17.7,17.7,0,0,0-5.7-3.84A45.21,45.21,0,0,0,950,119.27Zm0,2.48a42.93,42.93,0,0,1,17,3.18,15.52,15.52,0,0,1,4.93,3.26,4.56,4.56,0,0,1,0,7,15.52,15.52,0,0,1-4.93,3.26,47.19,47.19,0,0,1-34.06,0,15.52,15.52,0,0,1-4.93-3.26,4.56,4.56,0,0,1,0-7,15.52,15.52,0,0,1,4.93-3.26,42.93,42.93,0,0,1,17-3.18Zm-23.59,15.33a17.92,17.92,0,0,0,5.51,3.65,50.1,50.1,0,0,0,36.16,0,17.92,17.92,0,0,0,5.51-3.65v7a5.12,5.12,0,0,1-1.63,3.49,15.52,15.52,0,0,1-4.93,3.26,47.19,47.19,0,0,1-34.06,0A15.52,15.52,0,0,1,928,147.6a5.12,5.12,0,0,1-1.63-3.49.92.92,0,0,0,0-.23Zm0,12.42a17.92,17.92,0,0,0,5.51,3.65,50.1,50.1,0,0,0,36.16,0,17.92,17.92,0,0,0,5.51-3.65v7a5.12,5.12,0,0,1-1.63,3.49,15.52,15.52,0,0,1-4.93,3.26,47.19,47.19,0,0,1-34.06,0A15.52,15.52,0,0,1,928,160a5.12,5.12,0,0,1-1.63-3.49.92.92,0,0,0,0-.23Zm0,12.42a17.92,17.92,0,0,0,5.51,3.65,50.1,50.1,0,0,0,36.16,0,17.92,17.92,0,0,0,5.51-3.65v5.78a5.12,5.12,0,0,1-1.63,3.49,15.52,15.52,0,0,1-4.93,3.26,47.19,47.19,0,0,1-34.06,0,15.52,15.52,0,0,1-4.93-3.26,5.12,5.12,0,0,1-1.63-3.49Zm0,0"/></g><g class="cls-34"><path class="cls-32" d="M868.28,118.31a45.21,45.21,0,0,0-18.08,3.38,17.7,17.7,0,0,0-5.7,3.84,7.65,7.65,0,0,0-2.29,5.2v12.18a.92.92,0,0,0,0,.23v12.18a.92.92,0,0,0,0,.23v11.17a7.65,7.65,0,0,0,2.29,5.2,17.7,17.7,0,0,0,5.7,3.84,50.1,50.1,0,0,0,36.16,0,17.7,17.7,0,0,0,5.7-3.84,7.65,7.65,0,0,0,2.29-5.2v-36a7.65,7.65,0,0,0-2.29-5.2,17.7,17.7,0,0,0-5.7-3.84,45.21,45.21,0,0,0-18.08-3.38Zm0,2.48a42.93,42.93,0,0,1,17,3.18,15.52,15.52,0,0,1,4.93,3.26,4.56,4.56,0,0,1,0,7,15.52,15.52,0,0,1-4.93,3.26,47.19,47.19,0,0,1-34.06,0,15.52,15.52,0,0,1-4.93-3.26,4.56,4.56,0,0,1,0-7,15.52,15.52,0,0,1,4.93-3.26,42.93,42.93,0,0,1,17-3.18Zm-23.59,15.33a17.92,17.92,0,0,0,5.51,3.65,50.1,50.1,0,0,0,36.16,0,17.92,17.92,0,0,0,5.51-3.65v7a5.12,5.12,0,0,1-1.63,3.49,15.52,15.52,0,0,1-4.93,3.26,47.19,47.19,0,0,1-34.06,0,15.52,15.52,0,0,1-4.93-3.26,5.12,5.12,0,0,1-1.63-3.49.92.92,0,0,0,0-.23Zm0,12.42a17.92,17.92,0,0,0,5.51,3.65,50.1,50.1,0,0,0,36.16,0,17.92,17.92,0,0,0,5.51-3.65v7a5.12,5.12,0,0,1-1.63,3.49,15.52,15.52,0,0,1-4.93,3.26,47.19,47.19,0,0,1-34.06,0,15.52,15.52,0,0,1-4.93-3.26,5.12,5.12,0,0,1-1.63-3.49.92.92,0,0,0,0-.23Zm0,12.42a17.92,17.92,0,0,0,5.51,3.65,50.1,50.1,0,0,0,36.16,0,17.92,17.92,0,0,0,5.51-3.65v5.78a5.12,5.12,0,0,1-1.63,3.49,15.52,15.52,0,0,1-4.93,3.26,47.19,47.19,0,0,1-34.06,0,15.52,15.52,0,0,1-4.93-3.26,5.12,5.12,0,0,1-1.63-3.49Zm0,0"/></g><text class="cls-35" transform="translate(1170.51 205.63)"><tspan class="cls-15">E</tspan><tspan x="8.96" y="0">C2</tspan></text><text class="cls-35" transform="translate(1057 206.36)">BEAN<tspan class="cls-13" x="41.82" y="0">S</tspan><tspan class="cls-36" x="51.08" y="0">T</tspan><tspan x="59.04" y="0">ALK</tspan></text><ellipse class="cls-2" cx="978.58" cy="299.44" rx="24.37" ry="24.93"/><text class="cls-37" transform="translate(962.8 344.57)"><tspan class="cls-12">Y</tspan><tspan x="9.76" y="0">OU</tspan></text><text class="cls-37" transform="translate(1056.52 345.27)">C<tspan class="cls-38" x="10.09" y="0">L</tspan><tspan x="18.79" y="0">OUD </tspan><tspan x="-12.53" y="18.64">ENGINEER</tspan></text><path class="cls-39" d="M978.58,273.38a25.49,25.49,0,1,0,25.49,25.49A25.49,25.49,0,0,0,978.58,273.38Zm0,2.12a23.35,23.35,0,0,1,18,38.29c-2.31-1-7.81-2.88-11.23-3.89-.29-.09-.34-.1-.34-1.31a7,7,0,0,1,.81-2.85,14.64,14.64,0,0,0,1.13-3.87,8.7,8.7,0,0,0,1.67-4,5.32,5.32,0,0,0-.05-3.39l-.07-.21a22.11,22.11,0,0,1,.38-4.76,8.74,8.74,0,0,0-1.83-6.29,9.4,9.4,0,0,0-7.18-3.44h-2.15a9.35,9.35,0,0,0-7.11,3.43,8.71,8.71,0,0,0-1.83,6.29,22.11,22.11,0,0,1,.38,4.75l-.08.22a5.33,5.33,0,0,0,0,3.39,8.7,8.7,0,0,0,1.67,4,14.49,14.49,0,0,0,1.13,3.87,6.85,6.85,0,0,1,.47,2.9c0,1.21,0,1.22-.32,1.31-3.52,1-9.12,3.06-11.21,4a23.34,23.34,0,0,1,17.85-38.42Zm-16.3,40.07c2.39-1,7.15-2.67,10.28-3.6,1.82-.57,1.82-2.11,1.82-3.34a9.14,9.14,0,0,0-.67-3.8,12,12,0,0,1-1-3.54,1.07,1.07,0,0,0-.36-.71,6.34,6.34,0,0,1-1.3-3.17c-.31-1.54-.18-1.88,0-2.2l.15-.43a20.73,20.73,0,0,0-.34-5.69,6.65,6.65,0,0,1,1.42-4.61,7.26,7.26,0,0,1,5.51-2.62h2a7.3,7.3,0,0,1,5.57,2.62,6.66,6.66,0,0,1,1.42,4.61,20.9,20.9,0,0,0-.34,5.69l.15.43c.12.33.26.66-.05,2.2a6.3,6.3,0,0,1-1.3,3.17,1.07,1.07,0,0,0-.36.71,12,12,0,0,1-1,3.54,9,9,0,0,0-1,3.76c0,1.23,0,2.77,1.84,3.35,3,.89,7.79,2.53,10.32,3.53a23.3,23.3,0,0,1-32.73.11Z"/><path class="cls-39" d="M1082,273.38a25.49,25.49,0,1,0,25.49,25.49A25.49,25.49,0,0,0,1082,273.38Zm0,2.12a23.35,23.35,0,0,1,18,38.29c-2.31-1-7.81-2.88-11.23-3.89-.29-.09-.34-.1-.34-1.31a7,7,0,0,1,.81-2.85,14.64,14.64,0,0,0,1.13-3.87,8.7,8.7,0,0,0,1.67-4,5.32,5.32,0,0,0-.05-3.39l-.07-.21a22.11,22.11,0,0,1,.38-4.76,8.74,8.74,0,0,0-1.83-6.29,9.4,9.4,0,0,0-7.18-3.44h-2.15a9.35,9.35,0,0,0-7.11,3.43,8.71,8.71,0,0,0-1.83,6.29,22.11,22.11,0,0,1,.38,4.75l-.08.22a5.33,5.33,0,0,0,0,3.39,8.7,8.7,0,0,0,1.67,4,14.49,14.49,0,0,0,1.13,3.87,6.85,6.85,0,0,1,.47,2.9c0,1.21,0,1.22-.32,1.31-3.52,1-9.12,3.06-11.21,4A23.34,23.34,0,0,1,1082,275.51Zm-16.3,40.07c2.39-1,7.15-2.67,10.28-3.6,1.82-.57,1.82-2.11,1.82-3.34a9.14,9.14,0,0,0-.67-3.8,12,12,0,0,1-1-3.54,1.07,1.07,0,0,0-.36-.71,6.34,6.34,0,0,1-1.3-3.17c-.31-1.54-.18-1.88,0-2.2l.15-.43a20.73,20.73,0,0,0-.34-5.69,6.65,6.65,0,0,1,1.42-4.61,7.26,7.26,0,0,1,5.51-2.62h2a7.3,7.3,0,0,1,5.57,2.62,6.66,6.66,0,0,1,1.42,4.61,20.9,20.9,0,0,0-.34,5.69l.15.43c.12.33.26.66-.05,2.2a6.3,6.3,0,0,1-1.3,3.17,1.07,1.07,0,0,0-.36.71,12,12,0,0,1-1,3.54,9,9,0,0,0-1,3.76c0,1.23,0,2.77,1.84,3.35,3,.89,7.79,2.53,10.32,3.53a23.3,23.3,0,0,1-32.73.11Z"/><text class="cls-35" transform="translate(1234.39 205.63)">LAMB<tspan class="cls-40" x="42.96" y="0">D</tspan><tspan x="52.93" y="0">A</tspan></text><line class="cls-41" x1="785.06" y1="218.12" x2="1025.92" y2="266.54"/><polyline class="cls-41" points="951.78 218.12 1025.92 266.54 867.66 218.12"/><line class="cls-41" x1="1266.78" y1="218.12" x2="1025.92" y2="266.54"/><polyline class="cls-41" points="1100.06 218.12 1025.92 266.54 1184.19 218.12"/></g></svg>