<svg xmlns="http://www.w3.org/2000/svg" viewBox="0 0 1370 413.47"><defs><style>.cls-1,.cls-39{fill:#f1f5f9;}.cls-1,.cls-40,.cls-42{stroke:#f1f5f9;stroke-miterlimit:10;}.cls-1{stroke-width:0;}.cls-2{fill:#fff;}.cls-3{font-size:21px;}.cls-16,.cls-23,.cls-25,.cls-28,.cls-3{fill:#59595b;}.cls-16,.cls-24,.cls-25,.cls-28,.cls-3,.cls-36,.cls-41{font-family:Interstate-Regular, Interstate;}.cls-4{letter-spacing:-0.09em;}.cls-5{letter-spacing:-0.03em;}.cls-6{letter-spacing:-0.02em;}.cls-7{letter-spacing:-0.01em;}.cls-8{letter-spacing:-0.01em;}.cls-9{letter-spacing:-0.09em;}.cls-10{letter-spacing:-0.03em;}.cls-11{letter-spacing:-0.02em;}.cls-12{letter-spacing:-0.05em;}.cls-13{letter-spacing:-0.07em;}.cls-14{letter-spacing:-0.11em;}.cls-15{letter-spacing:-0.03em;}.cls-16,.cls-23,.cls-25,.cls-28,.cls-36,.cls-41{font-size:15.4px;}.cls-16{letter-spacing:-0.02em;}.cls-17,.cls-23,.cls-25{letter-spacing:0.02em;}.cls-18{letter-spacing:-0.05em;}.cls-19{letter-spacing:-0.09em;}.cls-20{letter-spacing:0.03em;}.cls-21{letter-spacing:-0.01em;}.cls-22{letter-spacing:-0.01em;}.cls-23{font-family:Interstate-Light, Interstate;}.cls-26{letter-spacing:-0.01em;}.cls-27{letter-spacing:0em;}.cls-29{letter-spacing:-0.08em;}.cls-30{letter-spacing:-0.06em;}.cls-31,.cls-36,.cls-41{letter-spacing:-0.03em;}.cls-32{letter-spacing:0.01em;}.cls-33{letter-spacing:0.02em;}.cls-34{letter-spacing:0.01em;}.cls-35{letter-spacing:0.01em;}.cls-36,.cls-40{fill:#f15f24;}.cls-37{letter-spacing:0.01em;}.cls-38{letter-spacing:0em;}.cls-40,.cls-42{stroke-width:0.45px;}.cls-41,.cls-42{fill:#636566;}.cls-43,.cls-45{fill:none;}.cls-43{stroke:#bcbec0;stroke-linecap:round;stroke-linejoin:round;stroke-width:1.39px;}.cls-44{fill:#3eb549;}.cls-46{fill:#636466;}.cls-47{fill:#939598;}.cls-48{fill:#ee2341;}</style></defs><title>Artboard 87 copy 6</title><g id="Layer_2" data-name="Layer 2"><rect class="cls-1" x="-0.06" y="-0.47" width="1370.11" height="413.47"/><rect class="cls-2" x="680.52" y="0.52" width="11.98" height="413.47"/></g><g id="Layer_1" data-name="Layer 1"><text class="cls-3" transform="translate(714.8 45.38)">ME<tspan class="cls-4" x="29.88" y="0">T</tspan><tspan x="40.74" y="0">AL </tspan><tspan class="cls-5" x="73.86" y="0">T</tspan><tspan class="cls-6" x="85.91" y="0">O</tspan><tspan x="100.38" y="0">AD:</tspan><tspan x="0" y="25.2">L</tspan><tspan class="cls-7" x="12.5" y="25.2">E</tspan><tspan x="25.2" y="25.2">VE</tspan><tspan class="cls-8" x="52.56" y="25.2">R</tspan><tspan class="cls-6" x="66.82" y="25.2">A</tspan><tspan x="81.31" y="25.2">GE A </tspan><tspan class="cls-9" x="134.76" y="25.2">T</tspan><tspan x="145.61" y="25.2">AI</tspan><tspan class="cls-10" x="166.8" y="25.2">L</tspan><tspan x="178.67" y="25.2">ORED C</tspan><tspan class="cls-10" x="254.77" y="25.2">L</tspan><tspan x="266.64" y="25.2">OUD</tspan></text><text class="cls-3" transform="translate(21.78 45.38)">T<tspan class="cls-11" x="12.75" y="0">R</tspan><tspan x="27" y="0">ADITIONAL MODEL:</tspan><tspan class="cls-12" x="0" y="25.2">O</tspan><tspan x="13.99" y="25.2">VER </tspan><tspan class="cls-13" x="61.59" y="25.2">P</tspan><tspan class="cls-14" x="73.83" y="25.2">A</tspan><tspan x="86.48" y="25.2">Y OR UNDER PER</tspan><tspan class="cls-15" x="260.19" y="25.2">F</tspan><tspan x="271.71" y="25.2">ORM</tspan></text><text class="cls-16" transform="translate(82.57 354.49)">O<tspan class="cls-17" x="10.64" y="0">VER</tspan><tspan class="cls-18" x="42.55" y="0">P</tspan><tspan class="cls-19" x="51.91" y="0">A</tspan><tspan class="cls-20" x="61.57" y="0">Y </tspan><tspan class="cls-21" x="77.11" y="0">F</tspan><tspan class="cls-20" x="85.95" y="0">OR</tspan><tspan class="cls-17"><tspan x="-26.93" y="18">UNNEEDED SE</tspan><tspan class="cls-22" x="82.74" y="18">R</tspan><tspan class="cls-20" x="93.35" y="18">VERS</tspan></tspan></text><text class="cls-23" transform="translate(313.35 307.83)">— <tspan class="cls-24" x="13.71" y="0">OR </tspan><tspan x="40.66" y="0">—</tspan></text><text class="cls-25" transform="translate(471.43 354.49)">UNDER<tspan class="cls-18" x="54.38" y="0">P</tspan><tspan class="cls-19" x="63.74" y="0">A</tspan><tspan class="cls-20" x="73.4" y="0">Y </tspan><tspan class="cls-26" x="88.93" y="0">F</tspan><tspan class="cls-20" x="97.77" y="0">OR </tspan><tspan class="cls-22" x="124.72" y="0">L</tspan><tspan class="cls-27" x="133.81" y="0">O</tspan><tspan x="144.76" y="0">W </tspan><tspan x="-8.3" y="18">PER</tspan><tspan class="cls-26" x="23.07" y="18">F</tspan><tspan x="31.91" y="18">ORMING SE</tspan><tspan class="cls-22" x="118.73" y="18">R</tspan><tspan x="129.34" y="18">VERS</tspan></text><text class="cls-28" transform="translate(945.81 354.49)"><tspan class="cls-18">P<tspan class="cls-29" x="9.36" y="0">A</tspan><tspan class="cls-17" x="19.02" y="0">Y </tspan><tspan class="cls-26" x="34.56" y="0">F</tspan><tspan class="cls-17" x="43.4" y="0">OR WH</tspan><tspan class="cls-30" x="95.4" y="0">A</tspan><tspan class="cls-17" x="105.37" y="0">T </tspan><tspan class="cls-31" x="119.64" y="0">Y</tspan><tspan class="cls-17" x="129.79" y="0">OU USE +</tspan></tspan><tspan class="cls-17" x="2.67" y="18"> </tspan><tspan x="7.21" y="18">A</tspan><tspan class="cls-17" x="18.18" y="18">U</tspan><tspan class="cls-26" x="29.41" y="18">T</tspan><tspan class="cls-17" x="38.63" y="18">O</tspan><tspan class="cls-32" x="49.96" y="18">-</tspan><tspan class="cls-33" x="55.59" y="18">S</tspan><tspan class="cls-34" x="65.53" y="18">C</tspan><tspan class="cls-17" x="75.73" y="18">ALE </tspan><tspan class="cls-35" x="111.03" y="18">A</tspan><tspan class="cls-17" x="122.19" y="18">S NEEDED</tspan></text><text class="cls-36" transform="translate(1022.67 211.31)">Y<tspan class="cls-20" x="10.15" y="0">OUR </tspan><tspan class="cls-17"><tspan x="-28.17" y="18">INV</tspan><tspan class="cls-37" x="-0.85" y="18">E</tspan><tspan class="cls-38" x="8.78" y="18">S</tspan><tspan class="cls-20" x="18.42" y="18">TMENT </tspan></tspan></text><circle class="cls-39" cx="1046.5" cy="152.94" r="35.37" transform="translate(891.84 1199.19) rotate(-89.91)"/><path class="cls-40" d="M1046.55,117.58A35.37,35.37,0,1,0,1081.86,153,35.37,35.37,0,0,0,1046.55,117.58Zm0,2.95a32.4,32.4,0,0,1,24.83,53.17c-3.2-1.35-10.83-4-15.57-5.43-.4-.13-.47-.14-.46-1.82a9.67,9.67,0,0,1,1.13-4,20.32,20.32,0,0,0,1.58-5.37,12.07,12.07,0,0,0,2.33-5.59c.55-2.76.3-3.76-.06-4.7l-.1-.29a30.68,30.68,0,0,1,.53-6.61,12.12,12.12,0,0,0-2.53-8.74c-1.55-2-4.52-4.43-10-4.78h-3c-5.34.33-8.32,2.76-9.87,4.75a12.09,12.09,0,0,0-2.56,8.73,30.68,30.68,0,0,1,.51,6.6l-.11.3c-.36.94-.62,1.94-.08,4.7a12.07,12.07,0,0,0,2.31,5.6,20.1,20.1,0,0,0,1.56,5.38,9.51,9.51,0,0,1,.64,4c0,1.67-.06,1.7-.44,1.82-4.89,1.43-12.66,4.23-15.56,5.49a32.39,32.39,0,0,1,24.85-53.26Zm-22.71,55.56c3.32-1.35,9.93-3.69,14.28-5,2.53-.79,2.53-2.92,2.53-4.63a12.68,12.68,0,0,0-.92-5.27,16.6,16.6,0,0,1-1.35-4.91,1.49,1.49,0,0,0-.5-1c-.41-.36-1.26-1.71-1.8-4.41-.42-2.14-.24-2.6-.06-3.06l.2-.6c.36-1.29,0-5.54-.46-7.9a9.23,9.23,0,0,1,2-6.39,10.07,10.07,0,0,1,7.64-3.62h2.79c3.41.22,6,1.45,7.73,3.65a9.24,9.24,0,0,1,2,6.39c-.43,2.36-.83,6.61-.49,7.9l.21.6c.17.46.36.92-.08,3.06-.55,2.7-1.4,4-1.82,4.4a1.48,1.48,0,0,0-.5,1,16.69,16.69,0,0,1-1.37,4.91,12.49,12.49,0,0,0-1.41,5.21c0,1.71,0,3.84,2.55,4.65,4.16,1.24,10.8,3.53,14.31,4.92a32.33,32.33,0,0,1-45.42.08Z"/><text class="cls-41" transform="translate(317.17 211.31)">Y<tspan class="cls-20" x="10.15" y="0">OUR </tspan><tspan class="cls-17"><tspan x="-28.17" y="18">INV</tspan><tspan class="cls-37" x="-0.85" y="18">E</tspan><tspan class="cls-38" x="8.78" y="18">S</tspan><tspan class="cls-20" x="18.42" y="18">TMENT </tspan></tspan></text><circle class="cls-39" cx="341.33" cy="152.94" r="35.37" transform="translate(187.83 494.03) rotate(-89.91)"/><path class="cls-42" d="M341.39,117.58A35.37,35.37,0,1,0,376.7,153,35.37,35.37,0,0,0,341.39,117.58Zm0,2.95a32.4,32.4,0,0,1,24.83,53.17c-3.2-1.35-10.83-4-15.57-5.43-.4-.13-.47-.14-.46-1.82a9.67,9.67,0,0,1,1.13-4,20.32,20.32,0,0,0,1.58-5.37,12.07,12.07,0,0,0,2.33-5.59c.55-2.76.3-3.76-.06-4.7l-.1-.29a30.68,30.68,0,0,1,.53-6.61,12.12,12.12,0,0,0-2.53-8.74c-1.55-2-4.52-4.43-10-4.78h-3c-5.34.33-8.32,2.76-9.87,4.75a12.09,12.09,0,0,0-2.56,8.73,30.68,30.68,0,0,1,.51,6.6l-.11.3c-.36.94-.62,1.94-.08,4.7a12.07,12.07,0,0,0,2.31,5.6,20.1,20.1,0,0,0,1.56,5.38,9.51,9.51,0,0,1,.64,4c0,1.67-.06,1.7-.44,1.82-4.89,1.43-12.66,4.23-15.56,5.49a32.39,32.39,0,0,1,24.85-53.26Zm-22.71,55.56c3.32-1.35,9.93-3.69,14.28-5,2.53-.79,2.53-2.92,2.53-4.63a12.68,12.68,0,0,0-.92-5.27,16.6,16.6,0,0,1-1.35-4.91,1.49,1.49,0,0,0-.5-1c-.41-.36-1.26-1.71-1.8-4.41-.42-2.14-.24-2.6-.06-3.06l.2-.6c.36-1.29,0-5.54-.46-7.9a9.23,9.23,0,0,1,2-6.39,10.07,10.07,0,0,1,7.64-3.62H343c3.41.22,6,1.45,7.73,3.65a9.24,9.24,0,0,1,2,6.39c-.43,2.36-.83,6.61-.49,7.9l.21.6c.17.46.36.92-.08,3.06-.55,2.7-1.4,4-1.82,4.4a1.48,1.48,0,0,0-.5,1,16.69,16.69,0,0,1-1.37,4.91,12.49,12.49,0,0,0-1.41,5.21c0,1.71,0,3.84,2.55,4.65,4.16,1.24,10.8,3.53,14.31,4.92a32.33,32.33,0,0,1-45.42.08Z"/><line class="cls-43" x1="1046.81" y1="262.37" x2="1046.86" y2="235.34"/><line class="cls-43" x1="339.11" y1="241.49" x2="488.36" y2="273.91"/><line class="cls-43" x1="338.49" y1="241.37" x2="191.16" y2="273.91"/></g><g id="Layer_3" data-name="Layer 3"><circle class="cls-1" cx="1077.01" cy="179.55" r="21.03"/><path class="cls-44" d="M1076.95,161.12l-.09,0h0a17.94,17.94,0,0,0-8.66,2.32.71.71,0,0,0-.34.2,18.08,18.08,0,0,0-6.34,6.31.71.71,0,0,0-.2.38,18,18,0,0,0-2.32,8.46.73.73,0,0,0,0,.72,17.91,17.91,0,0,0,2.35,8.55.73.73,0,0,0,.16.27c.17.28.34.56.52.83a.72.72,0,1,0,1.19-.79c-.07-.1-.12-.21-.18-.32l1.22-.7a.72.72,0,0,0-.41-1.38l-.07,0a.71.71,0,0,0-.25.09l-1.24.72a16.51,16.51,0,0,1-1.85-6.94h1.42a.72.72,0,1,0,0-1.44h-1.42a16.5,16.5,0,0,1,1.85-6.94l1.24.72a.73.73,0,1,0,.72-1.26l-1.24-.72a16.62,16.62,0,0,1,5.07-5.07l.72,1.24a.73.73,0,1,0,1.26-.72l-.72-1.24a16.5,16.5,0,0,1,6.94-1.85V164a.72.72,0,1,0,1.44,0v-1.42a16.55,16.55,0,0,1,6.94,1.85l-.72,1.24a.73.73,0,1,0,1.26.72l.72-1.24a16.69,16.69,0,0,1,5.07,5.07l-1.24.72a.73.73,0,1,0,.72,1.26l1.24-.72a16.55,16.55,0,0,1,1.85,6.94h-1.49a.72.72,0,0,0,.07,1.44h1.42a16.56,16.56,0,0,1-1.85,6.94l-1.24-.72a.73.73,0,1,0-.72,1.26l1.22.7c-.06.1-.11.22-.18.32a.72.72,0,1,0,1.19.81c.19-.28.35-.57.52-.86a.7.7,0,0,0,.16-.23,18,18,0,0,0,2.37-8.82.53.53,0,0,0,0-.14v-.09a.47.47,0,0,0,0-.09,18,18,0,0,0-2.23-8.52.72.72,0,0,0-.34-.61,18.14,18.14,0,0,0-6.25-6.2.7.7,0,0,0-.32-.18,18,18,0,0,0-8.75-2.35.68.68,0,0,0-.23,0Z"/><path class="cls-44" d="M1069.66,187.84a.72.72,0,0,0-.59.72v2.89a.72.72,0,0,0,.72.72h14.43a.72.72,0,0,0,.72-.72v-2.89a.72.72,0,0,0-.72-.72h-14.57Z"/><rect class="cls-39" x="1070.52" y="189.28" width="12.99" height="1.44"/><path class="cls-44" d="M1090.15,181.28l-9.54-3.25a3.55,3.55,0,0,0-1.12-1.72,3.61,3.61,0,1,0,.41,5.09v0l10.18.21Z"/><rect class="cls-45" x="1058.98" y="160.42" width="36.08" height="31.75"/><path class="cls-46" d="M70.49,287.87v3h2v-3Zm8,0v3h2v-3Zm8,0v3h2v-3Zm8,0v3h2v-3Zm8,0v3h2v-3Zm-33.81,4a3.21,3.21,0,0,0-3.19,3.19v25.62a3.21,3.21,0,0,0,3.19,3.19h37.62a3.21,3.21,0,0,0,3.19-3.19V295.05a3.21,3.21,0,0,0-3.19-3.19Zm0,2h37.62a1.18,1.18,0,0,1,1.19,1.19v25.62a1.18,1.18,0,0,1-1.19,1.19H68.68a1.18,1.18,0,0,1-1.19-1.19V295.05a1.18,1.18,0,0,1,1.19-1.19Zm2.81,3a1,1,0,1,0,1,1,1,1,0,0,0-1-1Zm4,0a1,1,0,1,0,1,1,1,1,0,0,0-1-1Zm4,0a1,1,0,1,0,1,1,1,1,0,0,0-1-1Zm4,0a1,1,0,1,0,1,1,1,1,0,0,0-1-1Zm4,0a1,1,0,1,0,1,1,1,1,0,0,0-1-1Zm4,0a1,1,0,1,0,1,1,1,1,0,0,0-1-1Zm4,0a1,1,0,1,0,1,1,1,1,0,0,0-1-1Zm4,0a1,1,0,1,0,1,1,1,1,0,0,0-1-1Zm4,0a1,1,0,1,0,1,1,1,1,0,0,0-1-1Zm-32,4a1,1,0,1,0,1,1,1,1,0,0,0-1-1Zm32,0a1,1,0,1,0,1,1,1,1,0,0,0-1-1Zm-32,4a1,1,0,1,0,1,1,1,1,0,0,0-1-1Zm32,0a1,1,0,1,0,1,1,1,1,0,0,0-1-1Zm-32,4a1,1,0,1,0,1,1,1,1,0,0,0-1-1Zm32,0a1,1,0,1,0,1,1,1,1,0,0,0-1-1Zm-32,4a1,1,0,1,0,1,1,1,1,0,0,0-1-1Zm32,0a1,1,0,1,0,1,1,1,1,0,0,0-1-1Zm-32,4a1,1,0,1,0,1,1,1,1,0,0,0-1-1Zm4,0a1,1,0,1,0,1,1,1,1,0,0,0-1-1Zm4,0a1,1,0,1,0,1,1,1,1,0,0,0-1-1Zm4,0a1,1,0,1,0,1,1,1,1,0,0,0-1-1Zm4,0a1,1,0,1,0,1,1,1,1,0,0,0-1-1Zm4,0a1,1,0,1,0,1,1,1,1,0,0,0-1-1Zm4,0a1,1,0,1,0,1,1,1,1,0,0,0-1-1Zm4,0a1,1,0,1,0,1,1,1,1,0,0,0-1-1Zm4,0a1,1,0,1,0,1,1,1,1,0,0,0-1-1Zm-33,8v3h2v-3Zm8,0v3h2v-3Zm8,0v3h2v-3Zm8,0v3h2v-3Zm8,0v3h2v-3Zm0,0"/><path class="cls-46" d="M119.74,287.87v3h2v-3Zm8,0v3h2v-3Zm8,0v3h2v-3Zm8,0v3h2v-3Zm8,0v3h2v-3Zm-33.81,4a3.21,3.21,0,0,0-3.19,3.19v25.62a3.21,3.21,0,0,0,3.19,3.19h37.62a3.21,3.21,0,0,0,3.19-3.19V295.05a3.21,3.21,0,0,0-3.19-3.19Zm0,2h37.62a1.18,1.18,0,0,1,1.19,1.19v25.62a1.18,1.18,0,0,1-1.19,1.19H117.93a1.18,1.18,0,0,1-1.19-1.19V295.05a1.18,1.18,0,0,1,1.19-1.19Zm2.81,3a1,1,0,1,0,1,1,1,1,0,0,0-1-1Zm4,0a1,1,0,1,0,1,1,1,1,0,0,0-1-1Zm4,0a1,1,0,1,0,1,1,1,1,0,0,0-1-1Zm4,0a1,1,0,1,0,1,1,1,1,0,0,0-1-1Zm4,0a1,1,0,1,0,1,1,1,1,0,0,0-1-1Zm4,0a1,1,0,1,0,1,1,1,1,0,0,0-1-1Zm4,0a1,1,0,1,0,1,1,1,1,0,0,0-1-1Zm4,0a1,1,0,1,0,1,1,1,1,0,0,0-1-1Zm4,0a1,1,0,1,0,1,1,1,1,0,0,0-1-1Zm-32,4a1,1,0,1,0,1,1,1,1,0,0,0-1-1Zm32,0a1,1,0,1,0,1,1,1,1,0,0,0-1-1Zm-32,4a1,1,0,1,0,1,1,1,1,0,0,0-1-1Zm32,0a1,1,0,1,0,1,1,1,1,0,0,0-1-1Zm-32,4a1,1,0,1,0,1,1,1,1,0,0,0-1-1Zm32,0a1,1,0,1,0,1,1,1,1,0,0,0-1-1Zm-32,4a1,1,0,1,0,1,1,1,1,0,0,0-1-1Zm32,0a1,1,0,1,0,1,1,1,1,0,0,0-1-1Zm-32,4a1,1,0,1,0,1,1,1,1,0,0,0-1-1Zm4,0a1,1,0,1,0,1,1,1,1,0,0,0-1-1Zm4,0a1,1,0,1,0,1,1,1,1,0,0,0-1-1Zm4,0a1,1,0,1,0,1,1,1,1,0,0,0-1-1Zm4,0a1,1,0,1,0,1,1,1,1,0,0,0-1-1Zm4,0a1,1,0,1,0,1,1,1,1,0,0,0-1-1Zm4,0a1,1,0,1,0,1,1,1,1,0,0,0-1-1Zm4,0a1,1,0,1,0,1,1,1,1,0,0,0-1-1Zm4,0a1,1,0,1,0,1,1,1,1,0,0,0-1-1Zm-33,8v3h2v-3Zm8,0v3h2v-3Zm8,0v3h2v-3Zm8,0v3h2v-3Zm8,0v3h2v-3Zm0,0"/><path class="cls-46" d="M169,287.87v3h2v-3Zm8,0v3h2v-3Zm8,0v3h2v-3Zm8,0v3h2v-3Zm8,0v3h2v-3Zm-33.81,4a3.21,3.21,0,0,0-3.19,3.19v25.62a3.21,3.21,0,0,0,3.19,3.19h37.62a3.21,3.21,0,0,0,3.19-3.19V295.05a3.21,3.21,0,0,0-3.19-3.19Zm0,2h37.62a1.18,1.18,0,0,1,1.19,1.19v25.62a1.18,1.18,0,0,1-1.19,1.19H167.18a1.18,1.18,0,0,1-1.19-1.19V295.05a1.18,1.18,0,0,1,1.19-1.19Zm2.81,3a1,1,0,1,0,1,1,1,1,0,0,0-1-1Zm4,0a1,1,0,1,0,1,1,1,1,0,0,0-1-1Zm4,0a1,1,0,1,0,1,1,1,1,0,0,0-1-1Zm4,0a1,1,0,1,0,1,1,1,1,0,0,0-1-1Zm4,0a1,1,0,1,0,1,1,1,1,0,0,0-1-1Zm4,0a1,1,0,1,0,1,1,1,1,0,0,0-1-1Zm4,0a1,1,0,1,0,1,1,1,1,0,0,0-1-1Zm4,0a1,1,0,1,0,1,1,1,1,0,0,0-1-1Zm4,0a1,1,0,1,0,1,1,1,1,0,0,0-1-1Zm-32,4a1,1,0,1,0,1,1,1,1,0,0,0-1-1Zm32,0a1,1,0,1,0,1,1,1,1,0,0,0-1-1Zm-32,4a1,1,0,1,0,1,1,1,1,0,0,0-1-1Zm32,0a1,1,0,1,0,1,1,1,1,0,0,0-1-1Zm-32,4a1,1,0,1,0,1,1,1,1,0,0,0-1-1Zm32,0a1,1,0,1,0,1,1,1,1,0,0,0-1-1Zm-32,4a1,1,0,1,0,1,1,1,1,0,0,0-1-1Zm32,0a1,1,0,1,0,1,1,1,1,0,0,0-1-1Zm-32,4a1,1,0,1,0,1,1,1,1,0,0,0-1-1Zm4,0a1,1,0,1,0,1,1,1,1,0,0,0-1-1Zm4,0a1,1,0,1,0,1,1,1,1,0,0,0-1-1Zm4,0a1,1,0,1,0,1,1,1,1,0,0,0-1-1Zm4,0a1,1,0,1,0,1,1,1,1,0,0,0-1-1Zm4,0a1,1,0,1,0,1,1,1,1,0,0,0-1-1Zm4,0a1,1,0,1,0,1,1,1,1,0,0,0-1-1Zm4,0a1,1,0,1,0,1,1,1,1,0,0,0-1-1Zm4,0a1,1,0,1,0,1,1,1,1,0,0,0-1-1Zm-33,8v3h2v-3Zm8,0v3h2v-3Zm8,0v3h2v-3Zm8,0v3h2v-3Zm8,0v3h2v-3Zm0,0"/><path class="cls-46" d="M588.06,285.34a1.65,1.65,0,0,0-1.65,1.4l-5,29.74a1.76,1.76,0,0,0-.08.52v10.56a1.77,1.77,0,0,0,1.76,1.76h40.46a1.77,1.77,0,0,0,1.76-1.76V317a1.73,1.73,0,0,0-.17-.74l-4.95-29.52a1.65,1.65,0,0,0-1.65-1.4Zm.08,1.76h30.29l4.73,28.15H583.39Zm15.15,4.4a15.92,15.92,0,0,0-9.21,2.75,8,8,0,0,0,0,13.85,16.8,16.8,0,0,0,18.42,0,8,8,0,0,0,0-13.85,15.92,15.92,0,0,0-9.21-2.75Zm0,1.76a14.24,14.24,0,0,1,8.19,2.42,6.28,6.28,0,0,1,0,11,15.08,15.08,0,0,1-16.38,0,6.28,6.28,0,0,1,0-11,14.24,14.24,0,0,1,8.19-2.42Zm0,5.28c-1.46,0-2.64.79-2.64,1.76s1.18,1.76,2.64,1.76,2.64-.79,2.64-1.76-1.18-1.76-2.64-1.76ZM583.06,317h40.43l0,.05v10.5H583.06Zm33.42,3.52a1.76,1.76,0,1,0,1.76,1.76,1.76,1.76,0,0,0-1.76-1.76Zm0,0"/><path class="cls-46" d="M537.73,285.34a1.65,1.65,0,0,0-1.65,1.4l-5,29.74a1.76,1.76,0,0,0-.08.52v10.56a1.77,1.77,0,0,0,1.76,1.76h40.46a1.77,1.77,0,0,0,1.76-1.76V317a1.73,1.73,0,0,0-.17-.74l-4.95-29.52a1.65,1.65,0,0,0-1.65-1.4Zm.08,1.76H568.1l4.73,28.15H533.05ZM553,291.5a15.92,15.92,0,0,0-9.21,2.75,8,8,0,0,0,0,13.85,16.8,16.8,0,0,0,18.42,0,8,8,0,0,0,0-13.85A15.92,15.92,0,0,0,553,291.5Zm0,1.76a14.24,14.24,0,0,1,8.19,2.42,6.28,6.28,0,0,1,0,11,15.08,15.08,0,0,1-16.38,0,6.28,6.28,0,0,1,0-11,14.24,14.24,0,0,1,8.19-2.42Zm0,5.28c-1.46,0-2.64.79-2.64,1.76s1.18,1.76,2.64,1.76,2.64-.79,2.64-1.76-1.18-1.76-2.64-1.76ZM532.72,317h40.43l0,.05v10.5H532.72Zm33.42,3.52a1.76,1.76,0,1,0,1.76,1.76,1.76,1.76,0,0,0-1.76-1.76Zm0,0"/><path class="cls-46" d="M487.32,285.34a1.65,1.65,0,0,0-1.65,1.4l-5,29.74a1.76,1.76,0,0,0-.08.52v10.56a1.77,1.77,0,0,0,1.76,1.76h40.46a1.77,1.77,0,0,0,1.76-1.76V317a1.73,1.73,0,0,0-.17-.74l-4.95-29.52a1.65,1.65,0,0,0-1.65-1.4Zm.08,1.76h30.29l4.73,28.15H482.65Zm15.15,4.4a15.92,15.92,0,0,0-9.21,2.75,8,8,0,0,0,0,13.85,16.8,16.8,0,0,0,18.42,0,8,8,0,0,0,0-13.85,15.92,15.92,0,0,0-9.21-2.75Zm0,1.76a14.24,14.24,0,0,1,8.19,2.42,6.28,6.28,0,0,1,0,11,15.08,15.08,0,0,1-16.38,0,6.28,6.28,0,0,1,0-11,14.24,14.24,0,0,1,8.19-2.42Zm0,5.28c-1.46,0-2.64.79-2.64,1.76s1.18,1.76,2.64,1.76,2.64-.79,2.64-1.76-1.18-1.76-2.64-1.76ZM482.32,317h40.43l0,.05v10.5H482.32Zm33.42,3.52a1.76,1.76,0,1,0,1.76,1.76,1.76,1.76,0,0,0-1.76-1.76Zm0,0"/><path class="cls-44" d="M1029.08,310.8h34.52a1.49,1.49,0,0,1,1.23.67,2,2,0,0,1,.35,1.13v6.85a2,2,0,0,1-.35,1.13,1.49,1.49,0,0,1-1.23.67h-34.52a1.49,1.49,0,0,1-1.23-.67,2,2,0,0,1-.35-1.13V312.6a2,2,0,0,1,.35-1.13,1.49,1.49,0,0,1,1.23-.67Zm34,2.09h-33.49v6.27h33.49Z"/><rect class="cls-44" x="1031.7" y="327.53" width="29.27" height="2.09"/><rect class="cls-44" x="1045.29" y="322.3" width="2.09" height="6.27"/><rect class="cls-44" x="1030.66" y="314.98" width="4.18" height="2.09"/><path class="cls-44" d="M1029.08,299.3h34.52a1.49,1.49,0,0,1,1.23.67,2,2,0,0,1,.35,1.13V308a2,2,0,0,1-.35,1.13,1.49,1.49,0,0,1-1.23.67h-34.52a1.49,1.49,0,0,1-1.23-.67,2,2,0,0,1-.35-1.13V301.1a2,2,0,0,1,.35-1.13,1.49,1.49,0,0,1,1.23-.67Zm34,2.09h-33.49v6.27h33.49Z"/><rect class="cls-44" x="1030.66" y="303.48" width="4.18" height="2.09"/><path class="cls-44" d="M1029.08,287.8h34.52a1.49,1.49,0,0,1,1.23.67,2,2,0,0,1,.35,1.13v6.85a2,2,0,0,1-.35,1.13,1.49,1.49,0,0,1-1.23.67h-34.52a1.49,1.49,0,0,1-1.23-.67,2,2,0,0,1-.35-1.13V289.6a2,2,0,0,1,.35-1.13,1.49,1.49,0,0,1,1.23-.67Zm34,2.09h-33.49v6.27h33.49Z"/><rect class="cls-44" x="1030.66" y="291.98" width="4.18" height="2.09"/><path class="cls-44" d="M1066.12,300.32a8.37,8.37,0,0,0,4.26-7.29,8.23,8.23,0,0,0-1.54-4.81,8.44,8.44,0,0,0-4.09-3.06l-.72-.25,0-.76a3.12,3.12,0,0,1,0-.37,1.19,1.19,0,0,0,0-.15,11.5,11.5,0,0,0-11.5-11.5,11.26,11.26,0,0,0-5.75,1.57,11.7,11.7,0,0,0-4.23,4.34l-.36.65-.73-.13-.74-.11a6.78,6.78,0,0,0-.73,0,8.23,8.23,0,0,0-4.81,1.54,8.44,8.44,0,0,0-3.06,4.09l-.26.75-.79-.05-.3,0-.19,0a8.36,8.36,0,0,0-4.1,15.65,3.11,3.11,0,0,0-.1.78v1.5a10.46,10.46,0,0,1,4.08-20,10.54,10.54,0,0,1,3.52-4.34,10.3,10.3,0,0,1,6-1.93,8.92,8.92,0,0,1,.95.06l.17,0a13.77,13.77,0,0,1,4.62-4.48,13.34,13.34,0,0,1,6.81-1.86,13.59,13.59,0,0,1,13.59,13.46,10.54,10.54,0,0,1,4.34,3.52,10.31,10.31,0,0,1,1.93,6,10.47,10.47,0,0,1-6.25,9.57v-1.5a3.11,3.11,0,0,0-.1-.78Z"/><path class="cls-44" d="M967.08,310.8h34.52a1.49,1.49,0,0,1,1.23.67,2,2,0,0,1,.35,1.13v6.85a2,2,0,0,1-.35,1.13,1.49,1.49,0,0,1-1.23.67H967.08a1.49,1.49,0,0,1-1.23-.67,2,2,0,0,1-.35-1.13V312.6a2,2,0,0,1,.35-1.13,1.49,1.49,0,0,1,1.23-.67Zm34,2.09H967.59v6.27h33.49Z"/><rect class="cls-44" x="969.7" y="327.53" width="29.27" height="2.09"/><rect class="cls-44" x="983.29" y="322.3" width="2.09" height="6.27"/><rect class="cls-44" x="968.66" y="314.98" width="4.18" height="2.09"/><path class="cls-44" d="M967.08,299.3h34.52a1.49,1.49,0,0,1,1.23.67,2,2,0,0,1,.35,1.13V308a2,2,0,0,1-.35,1.13,1.49,1.49,0,0,1-1.23.67H967.08a1.49,1.49,0,0,1-1.23-.67,2,2,0,0,1-.35-1.13V301.1a2,2,0,0,1,.35-1.13,1.49,1.49,0,0,1,1.23-.67Zm34,2.09H967.59v6.27h33.49Z"/><rect class="cls-44" x="968.66" y="303.48" width="4.18" height="2.09"/><path class="cls-44" d="M967.08,287.8h34.52a1.49,1.49,0,0,1,1.23.67,2,2,0,0,1,.35,1.13v6.85a2,2,0,0,1-.35,1.13,1.49,1.49,0,0,1-1.23.67H967.08a1.49,1.49,0,0,1-1.23-.67,2,2,0,0,1-.35-1.13V289.6a2,2,0,0,1,.35-1.13,1.49,1.49,0,0,1,1.23-.67Zm34,2.09H967.59v6.27h33.49Z"/><rect class="cls-44" x="968.66" y="291.98" width="4.18" height="2.09"/><path class="cls-44" d="M1004.12,300.32a8.37,8.37,0,0,0,4.26-7.29,8.23,8.23,0,0,0-1.54-4.81,8.44,8.44,0,0,0-4.09-3.06l-.72-.25,0-.76a3.12,3.12,0,0,1,0-.37,1.19,1.19,0,0,0,0-.15,11.5,11.5,0,0,0-11.5-11.5,11.26,11.26,0,0,0-5.75,1.57,11.7,11.7,0,0,0-4.23,4.34l-.36.65-.73-.13-.74-.11a6.78,6.78,0,0,0-.73,0,8.23,8.23,0,0,0-4.81,1.54A8.44,8.44,0,0,0,970.2,284l-.26.75-.79-.05-.3,0-.19,0a8.36,8.36,0,0,0-4.1,15.65,3.11,3.11,0,0,0-.1.78v1.5a10.46,10.46,0,0,1,4.08-20,10.54,10.54,0,0,1,3.52-4.34,10.3,10.3,0,0,1,6-1.93,8.92,8.92,0,0,1,.95.06l.17,0a13.77,13.77,0,0,1,4.62-4.48,13.34,13.34,0,0,1,6.81-1.86,13.59,13.59,0,0,1,13.59,13.46,10.54,10.54,0,0,1,4.34,3.52,10.31,10.31,0,0,1,1.93,6,10.47,10.47,0,0,1-6.25,9.57v-1.5a3.11,3.11,0,0,0-.1-.78Z"/><path class="cls-44" d="M1091.74,310.8h34.52a1.49,1.49,0,0,1,1.23.67,2,2,0,0,1,.35,1.13v6.85a2,2,0,0,1-.35,1.13,1.49,1.49,0,0,1-1.23.67h-34.52a1.49,1.49,0,0,1-1.23-.67,2,2,0,0,1-.35-1.13V312.6a2,2,0,0,1,.35-1.13,1.49,1.49,0,0,1,1.23-.67Zm34,2.09h-33.49v6.27h33.49Z"/><rect class="cls-44" x="1094.37" y="327.53" width="29.27" height="2.09"/><rect class="cls-44" x="1107.96" y="322.3" width="2.09" height="6.27"/><rect class="cls-44" x="1093.32" y="314.98" width="4.18" height="2.09"/><path class="cls-44" d="M1091.74,299.3h34.52a1.49,1.49,0,0,1,1.23.67,2,2,0,0,1,.35,1.13V308a2,2,0,0,1-.35,1.13,1.49,1.49,0,0,1-1.23.67h-34.52a1.49,1.49,0,0,1-1.23-.67,2,2,0,0,1-.35-1.13V301.1a2,2,0,0,1,.35-1.13,1.49,1.49,0,0,1,1.23-.67Zm34,2.09h-33.49v6.27h33.49Z"/><rect class="cls-44" x="1093.32" y="303.48" width="4.18" height="2.09"/><path class="cls-44" d="M1091.74,287.8h34.52a1.49,1.49,0,0,1,1.23.67,2,2,0,0,1,.35,1.13v6.85a2,2,0,0,1-.35,1.13,1.49,1.49,0,0,1-1.23.67h-34.52a1.49,1.49,0,0,1-1.23-.67,2,2,0,0,1-.35-1.13V289.6a2,2,0,0,1,.35-1.13,1.49,1.49,0,0,1,1.23-.67Zm34,2.09h-33.49v6.27h33.49Z"/><rect class="cls-44" x="1093.32" y="291.98" width="4.18" height="2.09"/><path class="cls-44" d="M1128.79,300.32A8.37,8.37,0,0,0,1133,293a8.23,8.23,0,0,0-1.54-4.81,8.44,8.44,0,0,0-4.09-3.06l-.72-.25,0-.76a3.12,3.12,0,0,1,0-.37,1.19,1.19,0,0,0,0-.15,11.5,11.5,0,0,0-11.5-11.5,11.26,11.26,0,0,0-5.75,1.57,11.7,11.7,0,0,0-4.23,4.34l-.36.65-.73-.13-.74-.11a6.78,6.78,0,0,0-.73,0,8.23,8.23,0,0,0-4.81,1.54,8.44,8.44,0,0,0-3.06,4.09l-.26.75-.79-.05-.3,0-.19,0a8.36,8.36,0,0,0-4.1,15.65,3.11,3.11,0,0,0-.1.78v1.5a10.46,10.46,0,0,1,4.08-20,10.54,10.54,0,0,1,3.52-4.34,10.3,10.3,0,0,1,6-1.93,8.92,8.92,0,0,1,.95.06l.17,0a13.77,13.77,0,0,1,4.62-4.48,13.34,13.34,0,0,1,6.81-1.86,13.59,13.59,0,0,1,13.59,13.46,10.54,10.54,0,0,1,4.34,3.52,10.31,10.31,0,0,1,1.93,6,10.47,10.47,0,0,1-6.25,9.57v-1.5a3.11,3.11,0,0,0-.1-.78Z"/><path class="cls-47" d="M1154.41,310.8h34.52a1.49,1.49,0,0,1,1.23.67,2,2,0,0,1,.35,1.13v6.85a2,2,0,0,1-.35,1.13,1.49,1.49,0,0,1-1.23.67h-34.52a1.49,1.49,0,0,1-1.23-.67,2,2,0,0,1-.35-1.13V312.6a2,2,0,0,1,.35-1.13,1.49,1.49,0,0,1,1.23-.67Zm34,2.09h-33.49v6.27h33.49Z"/><rect class="cls-47" x="1157.04" y="327.53" width="29.27" height="2.09"/><rect class="cls-47" x="1170.63" y="322.3" width="2.09" height="6.27"/><rect class="cls-47" x="1155.99" y="314.98" width="4.18" height="2.09"/><path class="cls-47" d="M1154.41,299.3h34.52a1.49,1.49,0,0,1,1.23.67,2,2,0,0,1,.35,1.13V308a2,2,0,0,1-.35,1.13,1.49,1.49,0,0,1-1.23.67h-34.52a1.49,1.49,0,0,1-1.23-.67,2,2,0,0,1-.35-1.13V301.1a2,2,0,0,1,.35-1.13,1.49,1.49,0,0,1,1.23-.67Zm34,2.09h-33.49v6.27h33.49Z"/><rect class="cls-47" x="1155.99" y="303.48" width="4.18" height="2.09"/><path class="cls-47" d="M1154.41,287.8h34.52a1.49,1.49,0,0,1,1.23.67,2,2,0,0,1,.35,1.13v6.85a2,2,0,0,1-.35,1.13,1.49,1.49,0,0,1-1.23.67h-34.52a1.49,1.49,0,0,1-1.23-.67,2,2,0,0,1-.35-1.13V289.6a2,2,0,0,1,.35-1.13,1.49,1.49,0,0,1,1.23-.67Zm34,2.09h-33.49v6.27h33.49Z"/><rect class="cls-47" x="1155.99" y="291.98" width="4.18" height="2.09"/><path class="cls-47" d="M1191.45,300.32a8.37,8.37,0,0,0,4.26-7.29,8.23,8.23,0,0,0-1.54-4.81,8.44,8.44,0,0,0-4.09-3.06l-.72-.25,0-.76a3.12,3.12,0,0,1,0-.37,1.19,1.19,0,0,0,0-.15,11.5,11.5,0,0,0-11.5-11.5,11.26,11.26,0,0,0-5.75,1.57A11.7,11.7,0,0,0,1168,278l-.36.65-.73-.13-.74-.11a6.78,6.78,0,0,0-.73,0,8.23,8.23,0,0,0-4.81,1.54,8.44,8.44,0,0,0-3.06,4.09l-.26.75-.79-.05-.3,0-.19,0a8.36,8.36,0,0,0-4.1,15.65,3.11,3.11,0,0,0-.1.78v1.5a10.46,10.46,0,0,1,4.08-20,10.54,10.54,0,0,1,3.52-4.34,10.3,10.3,0,0,1,6-1.93,8.92,8.92,0,0,1,.95.06l.17,0a13.77,13.77,0,0,1,4.62-4.48,13.34,13.34,0,0,1,6.81-1.86,13.59,13.59,0,0,1,13.59,13.46,10.54,10.54,0,0,1,4.34,3.52,10.31,10.31,0,0,1,1.93,6,10.47,10.47,0,0,1-6.25,9.57v-1.5a3.11,3.11,0,0,0-.1-.78Z"/><path class="cls-47" d="M904.74,310.8h34.52a1.49,1.49,0,0,1,1.23.67,2,2,0,0,1,.35,1.13v6.85a2,2,0,0,1-.35,1.13,1.49,1.49,0,0,1-1.23.67H904.74a1.49,1.49,0,0,1-1.23-.67,2,2,0,0,1-.35-1.13V312.6a2,2,0,0,1,.35-1.13,1.49,1.49,0,0,1,1.23-.67Zm34,2.09H905.26v6.27h33.49Z"/><rect class="cls-47" x="907.37" y="327.53" width="29.27" height="2.09"/><rect class="cls-47" x="920.96" y="322.3" width="2.09" height="6.27"/><rect class="cls-47" x="906.32" y="314.98" width="4.18" height="2.09"/><path class="cls-47" d="M904.74,299.3h34.52a1.49,1.49,0,0,1,1.23.67,2,2,0,0,1,.35,1.13V308a2,2,0,0,1-.35,1.13,1.49,1.49,0,0,1-1.23.67H904.74a1.49,1.49,0,0,1-1.23-.67,2,2,0,0,1-.35-1.13V301.1a2,2,0,0,1,.35-1.13,1.49,1.49,0,0,1,1.23-.67Zm34,2.09H905.26v6.27h33.49Z"/><rect class="cls-47" x="906.32" y="303.48" width="4.18" height="2.09"/><path class="cls-47" d="M904.74,287.8h34.52a1.49,1.49,0,0,1,1.23.67,2,2,0,0,1,.35,1.13v6.85a2,2,0,0,1-.35,1.13,1.49,1.49,0,0,1-1.23.67H904.74a1.49,1.49,0,0,1-1.23-.67,2,2,0,0,1-.35-1.13V289.6a2,2,0,0,1,.35-1.13,1.49,1.49,0,0,1,1.23-.67Zm34,2.09H905.26v6.27h33.49Z"/><rect class="cls-47" x="906.32" y="291.98" width="4.18" height="2.09"/><path class="cls-47" d="M941.79,300.32A8.37,8.37,0,0,0,946,293a8.23,8.23,0,0,0-1.54-4.81,8.44,8.44,0,0,0-4.09-3.06l-.72-.25,0-.76a3.12,3.12,0,0,1,0-.37,1.19,1.19,0,0,0,0-.15,11.5,11.5,0,0,0-11.5-11.5,11.26,11.26,0,0,0-5.75,1.57,11.7,11.7,0,0,0-4.23,4.34l-.36.65-.73-.13-.74-.11a6.78,6.78,0,0,0-.73,0,8.23,8.23,0,0,0-4.81,1.54,8.44,8.44,0,0,0-3.06,4.09l-.26.75-.79-.05-.3,0-.19,0a8.36,8.36,0,0,0-4.1,15.65,3.11,3.11,0,0,0-.1.78v1.5a10.46,10.46,0,0,1,4.08-20,10.54,10.54,0,0,1,3.52-4.34,10.3,10.3,0,0,1,6-1.93,8.92,8.92,0,0,1,.95.06l.17,0a13.77,13.77,0,0,1,4.62-4.48,13.34,13.34,0,0,1,6.81-1.86,13.59,13.59,0,0,1,13.59,13.46,10.54,10.54,0,0,1,4.34,3.52,10.31,10.31,0,0,1,1.93,6,10.47,10.47,0,0,1-6.25,9.57v-1.5a3.11,3.11,0,0,0-.1-.78Z"/><circle class="cls-1" cx="369.35" cy="179.55" r="21.03"/><path class="cls-48" d="M369.28,161.12l-.09,0h0a17.94,17.94,0,0,0-8.66,2.32.71.71,0,0,0-.34.2,18.08,18.08,0,0,0-6.34,6.31.71.71,0,0,0-.2.38,18,18,0,0,0-2.32,8.46.73.73,0,0,0,0,.72,17.91,17.91,0,0,0,2.35,8.55.73.73,0,0,0,.16.27c.17.28.34.56.52.83a.72.72,0,1,0,1.19-.79c-.07-.1-.12-.21-.18-.32l1.22-.7a.72.72,0,0,0-.41-1.38l-.07,0a.71.71,0,0,0-.25.09l-1.24.72a16.51,16.51,0,0,1-1.85-6.94h1.42a.72.72,0,1,0,0-1.44h-1.42a16.5,16.5,0,0,1,1.85-6.94l1.24.72a.73.73,0,1,0,.72-1.26l-1.24-.72a16.62,16.62,0,0,1,5.07-5.07l.72,1.24a.73.73,0,1,0,1.26-.72l-.72-1.24a16.5,16.5,0,0,1,6.94-1.85V164a.72.72,0,1,0,1.44,0v-1.42a16.55,16.55,0,0,1,6.94,1.85l-.72,1.24a.73.73,0,1,0,1.26.72l.72-1.24a16.69,16.69,0,0,1,5.07,5.07l-1.24.72a.73.73,0,1,0,.72,1.26l1.24-.72a16.55,16.55,0,0,1,1.85,6.94h-1.49a.72.72,0,0,0,.07,1.44h1.42a16.56,16.56,0,0,1-1.85,6.94l-1.24-.72a.73.73,0,1,0-.72,1.26l1.22.7c-.06.1-.11.22-.18.32a.72.72,0,1,0,1.19.81c.19-.28.35-.57.52-.86a.7.7,0,0,0,.16-.23,18,18,0,0,0,2.37-8.82.53.53,0,0,0,0-.14v-.09a.47.47,0,0,0,0-.09,18,18,0,0,0-2.23-8.52.72.72,0,0,0-.34-.61,18.14,18.14,0,0,0-6.25-6.2.7.7,0,0,0-.32-.18,18,18,0,0,0-8.75-2.35.68.68,0,0,0-.23,0Z"/><path class="cls-48" d="M362,187.84a.72.72,0,0,0-.59.72v2.89a.72.72,0,0,0,.72.72h14.43a.72.72,0,0,0,.72-.72v-2.89a.72.72,0,0,0-.72-.72H362Z"/><path class="cls-48" d="M358.71,186.64l9-4.45a3.55,3.55,0,0,0,2,.42,3.61,3.61,0,1,0-3.89-3.3v0l-7.34,7Z"/><rect class="cls-45" x="351.31" y="160.42" width="36.08" height="31.75"/><rect class="cls-1" x="362.85" y="189.28" width="12.99" height="1.44"/><path class="cls-39" d="M369.35,177a2.16,2.16,0,1,1-2.16,2.16,2.15,2.15,0,0,1,2.16-2.16Z"/><path class="cls-39" d="M1077,177a2.16,2.16,0,1,1-2.16,2.16A2.15,2.15,0,0,1,1077,177Z"/></g></svg>